<svg width="74" height="74" xmlns="http://www.w3.org/2000/svg"><path d="M74 0 37 37 0 74V41L41 0h33Z" fill="#D22856"/><path d="m27.92 37.315-.934.933-5.008-1.209 1.175 5.042-.87.87-1.344-6.042-5.563-1.185.908-.908 4.554 1.044-1.03-4.568.875-.875 1.155 5.535 6.081 1.363Zm-6.048-8.087.769-.769 3.93 3.93a36.493 36.493 0 0 1 1.9 2.035l.038-.038-1.934-9.861.9-.9 7.066 7.067-.773.774-3.891-3.891a37.658 37.658 0 0 1-1.958-2.122l-.043.043 1.962 9.9-.899.899-7.067-7.067Zm16.783-2.649-.822.822-6.337-6.337-2.238 2.238-.73-.73 5.298-5.298.73.73-2.238 2.238 6.337 6.337Z" fill="#fff"/></svg>